<?xml version="1.0" encoding="UTF-8" standalone="no"?>
<svg width="290px" height="113px" viewBox="36 32 290 113" version="1.1" xmlns="http://www.w3.org/2000/svg" xmlns:xlink="http://www.w3.org/1999/xlink">
    <!-- Generator: Sketch 3.8.3 (29802) - http://www.bohemiancoding.com/sketch -->
    <desc>Created with Sketch.</desc>
    <defs></defs>
    <g id="nav_logo" stroke="none" stroke-width="1" fill="none" fill-rule="evenodd" transform="translate(139.000000, 39.000000)">
        <g id="Imported-Layers-Copy" fill="#616161">
            <g id="Page-1">
                <g id="Home---Desktop-Copy-2">
                    <g id="Imported-Layers-Copy" transform="translate(0.000000, 0.383983)">
                        <g id="Group" transform="translate(0.525216, 0.464120)">
                            <path d="M7.6139486,32.8575819 C7.6139486,39.8612264 7.08562593,42.1554419 5.67709585,43.8460235 C4.44467333,45.2347886 2.39052566,45.8985817 0.042314724,46.0800794 L0.570637407,50.2460346 C3.32921531,50.2460346 7.08562593,49.280085 9.37502422,46.9257102 C11.8986819,44.2688391 12.7792197,40.5858586 12.7792197,34.9104797 L12.7792197,8.40430553 L7.6139486,8.40430553 L7.6139486,32.8575819" id="Fill-1"></path>
                            <path d="M46.1765483,29.6575765 C46.1765483,32.6760839 46.2350305,35.3329553 46.4111381,37.6271705 L41.8330024,37.6271705 L41.5395998,32.8575819 L41.4223049,32.8575819 C40.0719267,35.2122966 37.078759,38.2913034 32.0311132,38.2913034 C27.5702724,38.2913034 22.2288938,35.7554308 22.2288938,25.4916213 L22.2288938,8.40430553 L27.3941647,8.40430553 L27.3941647,24.5854912 C27.3941647,30.1402114 29.0376152,33.8840309 33.7333761,33.8840309 C37.196054,33.8840309 39.6024167,31.4083175 40.5417672,29.053263 C40.8351695,28.2688114 41.0112772,27.3025219 41.0112772,26.3365722 L41.0112772,8.40430553 L46.1765483,8.40430553 L46.1765483,29.6575765" id="Fill-2"></path>
                            <path d="M55.920616,17.9441627 C55.920616,14.2010229 55.8033211,11.1818355 55.6856958,8.40430553 L60.3226441,8.40430553 L60.5575644,13.4158914 L60.6748593,13.4158914 C62.7878196,9.85356984 66.1335328,7.74017267 70.7704812,7.74017267 C77.637685,7.74017267 82.8026256,13.7177082 82.8026256,22.5934326 C82.8026256,33.0988994 76.5810396,38.2913034 69.8899435,38.2913034 C66.1335328,38.2913034 62.8466323,36.6007217 61.1443693,33.7025329 L61.0270744,33.7025329 L61.0270744,49.5819017 L55.920616,49.5819017 L55.920616,17.9441627 L55.920616,17.9441627 L55.920616,17.9441627 Z M61.0270744,25.7329387 C61.0270744,26.5180702 61.1443693,27.2423624 61.2619945,27.9064952 C62.2010147,31.5894757 65.3118078,34.1253483 69.0094057,34.1253483 C74.4680792,34.1253483 77.637685,29.5365778 77.637685,22.8347499 C77.637685,16.978213 74.6441868,11.9666271 69.1855132,11.9666271 C65.6640228,11.9666271 62.3771223,14.5629991 61.3792894,18.5477962 C61.203182,19.2119291 61.0270744,19.9967206 61.0270744,20.7213528 L61.0270744,25.7329387 L61.0270744,25.7329387 L61.0270744,25.7329387 Z" id="Fill-3"></path>
                            <path d="M91.9598884,8.40430553 L98.1811441,25.6724393 C98.827092,27.6046786 99.5311918,29.8988938 100.001032,31.649975 L100.118327,31.649975 C100.646319,29.8988938 101.233455,27.6648379 101.937555,25.5514407 L107.572336,8.40430553 L113.031009,8.40430553 L105.283268,29.2347609 C101.58567,39.2572531 99.0616818,44.3894977 95.5401915,47.5293438 C93.0162033,49.8232193 90.4922153,50.7293494 89.2009801,50.9706667 L87.9097449,46.5028949 C89.2009801,46.0800794 90.903243,45.2347886 92.4293984,43.9065229 C93.8379285,42.7590754 95.599004,40.7065175 96.772614,37.9894867 C97.0072038,37.4463525 97.1833112,37.023537 97.1833112,36.7217203 C97.1833112,36.4195637 97.0660163,35.9970882 96.8310961,35.3329553 L86.3251073,8.40430553 L91.9598884,8.40430553" id="Fill-4"></path>
                            <path d="M126.61475,0.0118959313 L126.61475,8.40430553 L134.010277,8.40430553 L134.010277,12.4499418 L126.61475,12.4499418 L126.61475,28.2083121 C126.61475,31.830793 127.612583,33.8840309 130.488786,33.8840309 C131.838504,33.8840309 132.836337,33.7025329 133.481954,33.5217147 L133.716874,37.5061719 C132.719042,37.9289874 131.134074,38.2308041 129.138739,38.2308041 C126.732045,38.2308041 124.795193,37.4463525 123.56244,35.9970882 C122.095097,34.4271651 121.567105,31.830793 121.567105,28.3891303 L121.567105,12.4499418 L117.165076,12.4499418 L117.165076,8.40430553 L121.567105,8.40430553 L121.567105,1.40066094 L126.61475,0.0118959313" id="Fill-5"></path>
                            <path d="M143.519094,23.9818576 C143.636389,31.1666602 148.09723,34.1253483 153.262501,34.1253483 C156.960099,34.1253483 159.190354,33.4612154 161.127207,32.6155848 L162.007744,36.4195637 C160.188187,37.2648545 157.077724,38.2308041 152.55807,38.2308041 C143.812496,38.2308041 138.588743,32.3141079 138.588743,23.4988828 C138.588743,14.6836578 143.636389,7.74017267 151.912453,7.74017267 C161.18635,7.74017267 163.651195,16.1325823 163.651195,21.5064842 C163.651195,22.5934326 163.5339,23.4383835 163.475087,23.9818576 L143.519094,23.9818576 L143.519094,23.9818576 L143.519094,23.9818576 Z M158.662031,20.1782186 C158.720844,16.7967151 157.312314,11.5438117 151.501425,11.5438117 C146.277672,11.5438117 143.988604,16.4948983 143.577907,20.1782186 L158.662031,20.1782186 L158.662031,20.1782186 L158.662031,20.1782186 Z" id="Fill-6"></path>
                            <path d="M171.223489,17.5213473 C171.223489,14.0800243 171.164677,11.1213362 170.988569,8.40430553 L175.508223,8.40430553 L175.68433,14.1405236 L175.91892,14.1405236 C177.210486,10.2158859 180.321279,7.74017267 183.783956,7.74017267 C184.371092,7.74017267 184.78212,7.80067197 185.25163,7.92167059 L185.25163,12.9325768 C184.723307,12.8122579 184.194984,12.7517586 183.490554,12.7517586 C179.851438,12.7517586 177.269298,15.589448 176.564868,19.5742451 C176.447243,20.2985374 176.329948,21.1441682 176.329948,22.0496184 L176.329948,37.6271705 L171.223489,37.6271705 L171.223489,17.5213473" id="Fill-7"></path>
                        </g>
                    </g>
                </g>
            </g>
        </g>
    </g>
    <g id="Logo" stroke="none" stroke-width="1" fill="none" fill-rule="evenodd" transform="translate(36.000000, 33.000000)">
        <path d="M77.5161676,7.46713716 C77.6954603,11.7711526 74.4489835,15.4088744 70.2633549,15.5932852 C66.0798608,15.7776959 62.5420335,12.4385439 62.3627408,8.13452848 C62.1834484,3.83051304 65.4299251,0.191693573 69.6144865,0.00728281195 C73.7990475,-0.177127949 77.3368749,3.16312173 77.5161676,7.46713716" id="Fill-8" fill="#616161"></path>
        <path d="M41.3083015,83.6119328 C24.6137862,83.6119328 10.0759787,77.4339687 2.5075322,68.3077903 C8.23494294,84.6692727 23.4440334,96.3672302 41.3083015,96.3672302 C59.1725694,96.3672302 74.3816599,84.6692727 80.1090709,68.3077903 C72.5406243,77.4339687 58.0028168,83.6119328 41.3083015,83.6119328" id="Fill-9" fill="#EF6C00"></path>
        <path d="M41.3083015,24.2103176 C58.0028168,24.2103176 72.5406243,30.3874909 80.1090709,39.5144601 C74.3816599,23.1529779 59.1725694,11.4542294 41.3083015,11.4542294 C23.4440334,11.4542294 8.23494294,23.1529779 2.5075322,39.5144601 C10.0759787,30.3874909 24.6137862,24.2103176 41.3083015,24.2103176" id="Fill-10" fill="#EF6C00"></path>
        <path d="M21.6410725,101.673842 C21.8538734,106.786802 17.9960675,111.10882 13.0247442,111.328767 C8.05342101,111.54763 3.85113055,107.579913 3.63832969,102.466953 C3.42447536,97.3539926 7.28228121,93.0308922 12.2536045,92.8120285 C17.2249278,92.5931648 21.4282717,96.5608823 21.6410725,101.673842" id="Fill-11" fill="#616161"></path>
        <path d="M5.74537807,20.662147 C2.70559533,20.7958983 0.135260789,18.3698873 0.00521095368,15.242497 C-0.125896197,12.1161941 2.2329752,9.47270106 5.27381524,9.33894968 C8.31359798,9.20519827 10.8839325,11.6312093 11.0139823,14.7575122 C11.1450895,17.8849026 8.78516078,20.5283956 5.74537807,20.662147 L5.74537807,20.662147 Z" id="Fill-12" fill="#616161"></path>
    </g>
    <text id="Cal-Poly" stroke="none" fill="none" font-family="MyriadPro-Regular, Myriad Pro" font-size="36" font-weight="normal">
        <tspan x="138" y="129" fill="#616161">Cal Poly</tspan>
    </text>
</svg>